<svg width="30" height="30" viewBox="0 0 30 30" fill="none" xmlns="http://www.w3.org/2000/svg">
<path d="M28.075 9.4625L15.4462 2.64375C15.1675 2.49375 14.8337 2.49375 14.555 2.64375L1.92874 9.4625C1.47374 9.70875 1.30374 10.2775 1.54999 10.7337C1.71874 11.0462 2.04249 11.225 2.37499 11.225C2.52499 11.225 2.67874 11.1875 2.81999 11.1125L3.83874 10.5625L5.87499 24.9538C6.14249 26.4725 7.50999 27.5312 9.19749 27.5312H20.8C22.49 27.5312 23.8562 26.4713 24.1287 24.9225L26.1612 10.56L27.1837 11.1125C27.6387 11.3538 28.2087 11.1875 28.455 10.7325C28.7 10.2788 28.53 9.71 28.075 9.4625ZM22.2775 24.6287C22.1437 25.3862 21.3987 25.6562 20.8025 25.6562H9.19999C8.59999 25.6562 7.85624 25.3862 7.72749 24.6587L5.59999 9.6125L15 4.535L24.4025 9.61L22.2775 24.6287Z" fill="#0F1419"/>
<path d="M10.275 15.23C10.275 17.835 12.3938 19.955 15 19.955C17.6063 19.955 19.725 17.835 19.725 15.23C19.725 12.625 17.6063 10.505 15 10.505C12.3938 10.505 10.275 12.625 10.275 15.23ZM17.85 15.23C17.85 16.8025 16.5725 18.08 15 18.08C13.4275 18.08 12.15 16.8025 12.15 15.23C12.15 13.6575 13.4275 12.38 15 12.38C16.5725 12.38 17.85 13.6575 17.85 15.23Z" fill="#0F1419"/>
</svg>
